<svg xmlns="http://www.w3.org/2000/svg" width="508" height="76" viewBox="0 0 508 76">
  <defs>
    <style>
      .cls-1 {
        fill: #dc3840;
      }

      .cls-1, .cls-2 {
        fill-rule: evenodd;
      }

      .cls-2 {
        fill: #191d1d;
      }
    </style>
  </defs>
  <path id="icon-red" class="cls-1" d="M67.316,70.269C45.3,79.873,9.05,74,2.252,51.082-3.362,32.155,13.511,16.13,33.033,9.967c7.843-2.476,8.721.313,4.254,7.226-4.537,7.022-11.015,19.178-13.263,29.9C19.641,68,36.748,72.626,53.052,71.266c4.206-.351,11.946-1.829,14.313-1.985C68.494,69.207,68.219,69.875,67.316,70.269Z"/>
  <path id="icon-black" class="cls-2" d="M17.017,5.731C39.035-3.873,75.283,2,82.081,24.918,87.7,43.845,70.823,59.87,51.3,66.033c-7.843,2.476-8.721-.313-4.254-7.226,4.537-7.022,11.014-19.178,13.263-29.9C64.692,8,47.586,3.374,31.281,4.734c-4.206.351-11.946,1.829-14.313,1.984C15.839,6.793,16.114,6.125,17.017,5.731Z"/>
  <path id="intellective-black" class="cls-2" d="M104.6,26.779H99.539V54.94H104.6V26.779Zm-0.245-5.984a3.149,3.149,0,0,0,.952-2.41,3.15,3.15,0,0,0-.952-2.41,3.436,3.436,0,0,0-4.623,0,3.147,3.147,0,0,0-.952,2.41,3.146,3.146,0,0,0,.952,2.41A3.436,3.436,0,0,0,104.352,20.795ZM113.3,54.94h5.058V31.166q0.272-.053.9-0.163t1.414-.189q0.787-.081,1.658-0.135c0.58-.035,1.143-0.054,1.686-0.054a9.6,9.6,0,0,1,3.372.514,4.633,4.633,0,0,1,2.176,1.652,7.5,7.5,0,0,1,1.169,2.978,23.913,23.913,0,0,1,.354,4.441V54.94h5.058V39.126a23.663,23.663,0,0,0-.544-5.253,10.242,10.242,0,0,0-1.877-4.089,8.762,8.762,0,0,0-3.562-2.654,14.4,14.4,0,0,0-5.6-.948,40.165,40.165,0,0,0-6.635.487q-2.883.488-4.623,0.921V54.94Zm35.949-36.88-5.058.866V44.055a23.58,23.58,0,0,0,.463,4.955,8.752,8.752,0,0,0,1.6,3.6,6.932,6.932,0,0,0,3.019,2.193,13.23,13.23,0,0,0,4.758.731,15.212,15.212,0,0,0,4.351-.569,18.819,18.819,0,0,0,2.665-.948l-0.979-4.17q-0.543.217-1.93,0.731a10.775,10.775,0,0,1-3.671.515,7.263,7.263,0,0,1-2.285-.325,3.521,3.521,0,0,1-1.631-1.11,5.228,5.228,0,0,1-.979-2.166A15.526,15.526,0,0,1,149.247,44V31h10.715V26.779H149.247V18.06ZM165.1,46.789a12.46,12.46,0,0,0,2.584,4.63,11.9,11.9,0,0,0,4.432,3.06,16.718,16.718,0,0,0,6.39,1.11,23.139,23.139,0,0,0,5.249-.542,15.079,15.079,0,0,0,3.236-1.029L186.285,49.8a16.143,16.143,0,0,1-2.747.894,18.621,18.621,0,0,1-4.487.46q-4.731,0-6.961-2.274a10.28,10.28,0,0,1-2.556-6.661H188.9a7.673,7.673,0,0,0,.055-0.948v-0.84q0-7.256-3.046-10.8t-8.756-3.547a12.96,12.96,0,0,0-4.786.921,11.719,11.719,0,0,0-4.134,2.762,13.636,13.636,0,0,0-2.882,4.63,17.891,17.891,0,0,0-1.088,6.526A19.5,19.5,0,0,0,165.1,46.789Zm4.541-8.638a12.239,12.239,0,0,1,.68-2.87,8.082,8.082,0,0,1,1.442-2.491,7.243,7.243,0,0,1,2.257-1.76,6.694,6.694,0,0,1,3.072-.677,5.911,5.911,0,0,1,4.868,2.193,8.428,8.428,0,0,1,1.713,5.605H169.642Zm35.786,13.106a13.526,13.526,0,0,1-2.012-.406,3.04,3.04,0,0,1-1.305-.731,2.812,2.812,0,0,1-.707-1.3,8.126,8.126,0,0,1-.218-2.058V12.915l-5.058.867V47.575q0,4.008,1.958,5.9t6.635,2Zm14.848,0a13.516,13.516,0,0,1-2.013-.406,3.052,3.052,0,0,1-1.305-.731,2.821,2.821,0,0,1-.707-1.3,8.131,8.131,0,0,1-.217-2.058V12.915l-5.058.867V47.575q0,4.008,1.958,5.9t6.635,2Zm4.922-4.468a12.445,12.445,0,0,0,2.583,4.63,11.917,11.917,0,0,0,4.432,3.06,16.723,16.723,0,0,0,6.391,1.11,23.124,23.124,0,0,0,5.248-.542,15.059,15.059,0,0,0,3.236-1.029L246.381,49.8a16.157,16.157,0,0,1-2.746.894,18.627,18.627,0,0,1-4.487.46q-4.732,0-6.962-2.274a10.285,10.285,0,0,1-2.556-6.661h19.362a7.884,7.884,0,0,0,.054-0.948v-0.84q0-7.256-3.046-10.8t-8.756-3.547a12.967,12.967,0,0,0-4.786.921,11.716,11.716,0,0,0-4.133,2.762,13.622,13.622,0,0,0-2.883,4.63,17.912,17.912,0,0,0-1.087,6.526A19.472,19.472,0,0,0,225.2,46.789Zm4.541-8.638a12.239,12.239,0,0,1,.68-2.87,8.08,8.08,0,0,1,1.441-2.491,7.243,7.243,0,0,1,2.257-1.76,6.7,6.7,0,0,1,3.073-.677,5.907,5.907,0,0,1,4.867,2.193,8.434,8.434,0,0,1,1.714,5.605H229.739Zm41.143,17.3q1.168-.136,2.2-0.325a17.77,17.77,0,0,0,1.849-.433,5.314,5.314,0,0,0,1.251-.514l-0.707-4.224a13.308,13.308,0,0,1-2.557.812,16.107,16.107,0,0,1-3.643.379,10.952,10.952,0,0,1-4.243-.731,7.271,7.271,0,0,1-2.855-2.085,8.594,8.594,0,0,1-1.632-3.249,15.806,15.806,0,0,1-.516-4.17q0-5.09,2.257-7.744a8.06,8.06,0,0,1,6.5-2.654,14.973,14.973,0,0,1,3.182.325,12.218,12.218,0,0,1,2.637.867l1.143-4.278a17.634,17.634,0,0,0-3.644-1.029,22.6,22.6,0,0,0-3.807-.325,13.865,13.865,0,0,0-5.629,1.11,12.072,12.072,0,0,0-4.27,3.087,14.039,14.039,0,0,0-2.692,4.685,17.847,17.847,0,0,0-.952,5.957,19.132,19.132,0,0,0,.87,5.93,12.579,12.579,0,0,0,2.638,4.63,12.086,12.086,0,0,0,4.351,3.033,15.457,15.457,0,0,0,6.01,1.083A19.767,19.767,0,0,0,270.882,55.454ZM286.355,18.06l-5.058.866V44.055a23.652,23.652,0,0,0,.462,4.955,8.753,8.753,0,0,0,1.6,3.6,6.923,6.923,0,0,0,3.018,2.193,13.24,13.24,0,0,0,4.759.731,15.222,15.222,0,0,0,4.351-.569,18.819,18.819,0,0,0,2.665-.948l-0.979-4.17q-0.544.217-1.931,0.731a10.767,10.767,0,0,1-3.671.515,7.257,7.257,0,0,1-2.284-.325,3.519,3.519,0,0,1-1.632-1.11,5.24,5.24,0,0,1-.979-2.166A15.592,15.592,0,0,1,286.355,44V31h10.714V26.779H286.355V18.06Zm22.189,8.719h-5.058V54.94h5.058V26.779ZM308.3,20.795a3.148,3.148,0,0,0,.951-2.41,3.149,3.149,0,0,0-.951-2.41,3.436,3.436,0,0,0-4.623,0,3.146,3.146,0,0,0-.952,2.41,3.145,3.145,0,0,0,.952,2.41A3.436,3.436,0,0,0,308.3,20.795Zm25.806,5.984q-0.653,2.654-1.55,5.659t-1.9,5.957q-1.007,2.952-2.039,5.713t-1.958,4.928q-0.925-2.165-1.958-4.928t-2.04-5.713q-1.007-2.951-1.9-5.957t-1.55-5.659h-5.439a141.593,141.593,0,0,0,4.976,15.164q2.856,7.258,5.521,13h4.568q2.664-5.74,5.52-13a141.372,141.372,0,0,0,4.977-15.164h-5.221Zm8.947,20.01a12.445,12.445,0,0,0,2.583,4.63,11.917,11.917,0,0,0,4.432,3.06,16.723,16.723,0,0,0,6.391,1.11,23.124,23.124,0,0,0,5.248-.542,15.059,15.059,0,0,0,3.236-1.029L364.236,49.8a16.157,16.157,0,0,1-2.746.894,18.621,18.621,0,0,1-4.487.46q-4.732,0-6.962-2.274a10.285,10.285,0,0,1-2.556-6.661h19.362a7.682,7.682,0,0,0,.054-0.948v-0.84q0-7.256-3.045-10.8T355.1,26.075a12.967,12.967,0,0,0-4.786.921,11.716,11.716,0,0,0-4.133,2.762,13.622,13.622,0,0,0-2.883,4.63,17.912,17.912,0,0,0-1.087,6.526A19.472,19.472,0,0,0,343.053,46.789Zm4.541-8.638a12.239,12.239,0,0,1,.68-2.87,8.08,8.08,0,0,1,1.441-2.491,7.243,7.243,0,0,1,2.257-1.76,6.7,6.7,0,0,1,3.073-.677,5.911,5.911,0,0,1,4.868,2.193,8.439,8.439,0,0,1,1.713,5.605H347.594Z"/>
  <path id="unity-red" class="cls-1" d="M395.4,54.858a12.512,12.512,0,0,0,4.542-3.171,12.749,12.749,0,0,0,2.659-4.771,19.949,19.949,0,0,0,.858-5.956V16.969l-5.373,1V40.353a16.222,16.222,0,0,1-.664,4.936,9,9,0,0,1-1.883,3.392,7.466,7.466,0,0,1-2.908,1.958,10.563,10.563,0,0,1-3.739.634,8.9,8.9,0,0,1-6.647-2.592q-2.547-2.592-2.547-8.328V16.969l-5.373,1V40.96a19.917,19.917,0,0,0,.859,5.956,12.917,12.917,0,0,0,2.63,4.771,12.2,12.2,0,0,0,4.542,3.171,16.868,16.868,0,0,0,6.536,1.158A16.659,16.659,0,0,0,395.4,54.858Zm16.976,0.331h5.151V30.977q0.276-.054.914-0.165t1.44-.193q0.8-.083,1.689-0.138t1.717-.055a9.775,9.775,0,0,1,3.434.524,4.716,4.716,0,0,1,2.216,1.682,7.643,7.643,0,0,1,1.191,3.033,24.474,24.474,0,0,1,.36,4.523v15h5.151v-16.1a24.08,24.08,0,0,0-.554-5.35,10.452,10.452,0,0,0-1.911-4.164,8.924,8.924,0,0,0-3.628-2.7,14.662,14.662,0,0,0-5.705-.965,40.9,40.9,0,0,0-6.757.5q-2.937.5-4.708,0.938V55.189ZM449.318,26.51h-5.151V55.189h5.151V26.51Zm-0.249-6.094a3.208,3.208,0,0,0,.969-2.454,3.21,3.21,0,0,0-.969-2.454,3.5,3.5,0,0,0-4.708,0,3.2,3.2,0,0,0-.97,2.454,3.2,3.2,0,0,0,.97,2.454A3.5,3.5,0,0,0,449.069,20.416ZM463,17.631l-5.151.882V44.1a24.063,24.063,0,0,0,.471,5.046,8.9,8.9,0,0,0,1.634,3.668,7.053,7.053,0,0,0,3.074,2.234,13.481,13.481,0,0,0,4.846.745,15.494,15.494,0,0,0,4.431-.579,19.16,19.16,0,0,0,2.714-.965l-1-4.247q-0.553.221-1.966,0.745a10.969,10.969,0,0,1-3.739.524,7.394,7.394,0,0,1-2.326-.331,3.586,3.586,0,0,1-1.661-1.131,5.312,5.312,0,0,1-1-2.206A15.813,15.813,0,0,1,463,44.048V30.812H473.91v-4.3H463V17.631Zm13.127,47.045a5.669,5.669,0,0,0,.747.276q0.526,0.165,1.164.3t1.3,0.221a10.3,10.3,0,0,0,1.274.083,13.9,13.9,0,0,0,4.071-.552,9.617,9.617,0,0,0,3.24-1.71,12.921,12.921,0,0,0,2.631-2.951,29.461,29.461,0,0,0,2.3-4.274q2.825-6.507,5.262-13.981t4.431-15.58h-5.318q-1.385,6.012-2.935,11.692t-3.656,11.472q-1.329-2.813-2.547-5.846t-2.271-6.067q-1.053-3.032-1.911-5.9t-1.468-5.35H476.9a121.423,121.423,0,0,0,5.013,15.029q3.018,7.418,6.508,14.036a11.651,11.651,0,0,1-3.1,4.385,7.524,7.524,0,0,1-4.763,1.351,7.667,7.667,0,0,1-1.911-.248,9.84,9.84,0,0,1-1.579-.524Z"/>
</svg>
